<?xml version="1.0" encoding="utf-8"?>
<svg width="1024" height="1024" viewBox="0 0 1024 1024" fill="none" xmlns="http://www.w3.org/2000/svg">
<path d="M1024 651C1024 665.24 1024 679.48 1023.92 693.73C1023.85 705.73 1023.71 717.72 1023.39 729.71C1022.68 755.84 1021.14 782.2 1016.5 808.05C1011.79 834.27 1004.1 858.67 991.97 882.49C980.05 905.9 964.48 927.33 945.9 945.9C927.32 964.47 905.9 980.05 882.49 991.97C858.67 1004.09 834.27 1011.79 808.05 1016.5C782.21 1021.15 755.85 1022.68 729.71 1023.39C717.72 1023.72 705.72 1023.85 693.73 1023.92C679.49 1024.01 665.25 1024 651 1024H373C358.76 1024 344.52 1024 330.27 1023.92C318.27 1023.85 306.28 1023.71 294.29 1023.39C268.16 1022.68 241.8 1021.14 215.95 1016.5C189.73 1011.79 165.33 1004.1 141.51 991.97C118.1 980.05 96.67 964.48 78.1 945.9C59.53 927.32 43.95 905.9 32.03 882.49C19.91 858.67 12.21 834.27 7.5 808.05C2.85 782.21 1.32 755.85 0.61 729.71C0.28 717.72 0.15 705.72 0.08 693.73C-0.01 679.49 0 665.25 0 651V373C0 358.76 0 344.52 0.08 330.27C0.15 318.27 0.29 306.28 0.61 294.29C1.32 268.16 2.86 241.8 7.5 215.95C12.21 189.73 19.9 165.33 32.03 141.51C43.95 118.1 59.52 96.67 78.1 78.1C96.68 59.53 118.1 43.95 141.51 32.03C165.33 19.91 189.73 12.21 215.95 7.5C241.79 2.85 268.15 1.32 294.29 0.61C306.28 0.28 318.28 0.15 330.27 0.08C344.51 -0.01 358.75 0 373 0H651C665.24 0 679.48 0 693.73 0.08C705.73 0.15 717.72 0.29 729.71 0.61C755.84 1.32 782.2 2.86 808.05 7.5C834.27 12.21 858.67 19.9 882.49 32.03C905.9 43.95 927.33 59.52 945.9 78.1C964.47 96.68 980.05 118.1 991.97 141.51C1004.09 165.33 1011.79 189.73 1016.5 215.95C1021.15 241.79 1022.68 268.15 1023.39 294.29C1023.72 306.28 1023.85 318.28 1023.92 330.27C1024.01 344.51 1024 358.75 1024 373V651Z" fill="black"/>
</svg>
