<?xml version="1.0" standalone="no"?>
<!DOCTYPE svg PUBLIC "-//W3C//DTD SVG 20010904//EN"
 "http://www.w3.org/TR/2001/REC-SVG-20010904/DTD/svg10.dtd">
<svg version="1.0" xmlns="http://www.w3.org/2000/svg"
 width="1024.000000pt" height="1024.000000pt" viewBox="0 0 1024.000000 1024.000000"
 preserveAspectRatio="xMidYMid meet">
<metadata>
Created by potrace 1.16, written by Peter Selinger 2001-2019
</metadata>
<g transform="translate(0.000000,1024.000000) scale(0.100000,-0.100000)"
fill="#153655" stroke="none">
<path d="M5395 7909 c-156 -38 -393 -142 -529 -233 -44 -30 -119 -89 -165
-130 -90 -80 -175 -130 -281 -166 -54 -18 -101 -23 -280 -31 -395 -16 -598
-41 -845 -104 -316 -81 -599 -223 -818 -410 -141 -120 -205 -255 -194 -409 7
-103 28 -163 77 -219 78 -88 248 -149 354 -127 41 8 69 25 136 81 112 92 175
122 260 123 77 0 126 -19 218 -87 89 -66 141 -80 270 -76 101 4 112 6 193 45
47 23 109 62 137 87 64 57 101 77 142 77 70 0 103 -86 61 -156 -25 -41 -171
-150 -263 -196 -124 -62 -165 -71 -286 -66 -123 6 -177 26 -316 116 -69 46
-85 52 -130 52 -64 0 -110 -24 -213 -109 l-77 -65 95 -44 c190 -88 283 -124
394 -153 224 -56 686 -105 1111 -119 204 -6 305 -13 343 -24 54 -15 106 -47
217 -135 71 -56 244 -161 359 -219 44 -22 154 -65 245 -97 143 -49 173 -56
223 -53 46 3 63 10 86 32 55 53 48 131 -24 279 -102 210 -38 284 310 361 313
70 618 185 780 296 91 62 146 76 195 50 12 -7 67 -54 122 -105 200 -188 371
-280 670 -360 51 -14 111 -25 133 -25 98 0 161 100 124 196 -5 16 -63 82 -127
149 -177 183 -231 288 -240 465 -6 139 15 248 66 350 66 130 140 236 210 301
109 100 133 159 96 230 -17 34 -82 68 -127 69 -49 0 -178 -31 -256 -61 -177
-70 -416 -230 -551 -370 -84 -86 -104 -99 -153 -99 -56 0 -113 25 -221 99
-243 164 -473 248 -971 356 -288 62 -338 78 -372 111 -33 34 -30 97 13 229 41
125 54 226 34 251 -35 41 -154 63 -235 43z m-1484 -1089 c44 -12 67 -36 75
-78 6 -27 1 -37 -29 -67 l-36 -36 -396 3 -397 3 -24 28 c-27 31 -31 81 -10
109 33 44 63 47 431 48 204 0 365 -4 386 -10z"/>
<path d="M4735 5155 c-69 -18 -89 -45 -82 -115 3 -30 21 -106 41 -168 54 -169
48 -230 -26 -265 -18 -8 -141 -39 -273 -67 -540 -117 -785 -205 -1025 -368
-113 -76 -171 -102 -229 -102 -46 0 -69 16 -172 120 -195 197 -516 375 -722
402 -65 8 -90 7 -122 -3 -71 -25 -106 -110 -71 -177 8 -15 47 -58 87 -97 77
-75 167 -202 224 -319 50 -101 68 -196 63 -336 -7 -190 -57 -288 -243 -480
-63 -65 -119 -130 -125 -145 -36 -95 27 -195 125 -195 49 0 232 49 336 89 190
74 325 159 475 302 52 50 109 96 128 104 39 16 79 8 138 -28 150 -91 211 -123
320 -167 147 -61 295 -107 478 -149 373 -85 443 -158 342 -357 -103 -200 -83
-312 56 -322 49 -3 80 4 220 52 264 90 486 214 694 385 88 73 134 82 464 91
541 16 998 75 1252 161 111 38 403 170 396 180 -2 4 -30 22 -62 40 -31 18 -76
47 -99 66 -49 39 -118 72 -151 73 -44 0 -97 -31 -159 -95 -77 -78 -149 -115
-236 -122 -123 -10 -241 42 -343 149 -129 137 -147 180 -98 237 45 54 66 45
179 -74 110 -115 158 -144 237 -145 69 0 94 13 172 94 93 95 164 131 256 130
96 -2 140 -25 317 -168 80 -65 194 -67 314 -6 135 70 215 221 207 393 -4 110
-30 161 -127 255 -96 94 -194 159 -356 237 -469 226 -999 355 -1461 355 -172
0 -341 69 -484 196 -47 42 -121 100 -165 129 -190 126 -491 247 -608 244 -18
0 -54 -6 -82 -14z m2218 -1037 c120 -78 227 -152 237 -166 21 -26 17 -44 -17
-73 -24 -22 -412 -259 -441 -270 -30 -11 -60 4 -72 37 -19 48 1 68 172 169 90
54 167 101 171 105 5 4 -22 27 -59 50 -191 120 -292 190 -298 205 -20 53 15
102 64 90 14 -4 123 -70 243 -147z"/>
</g>
</svg>
